<svg width="200" height="200" viewBox="0 0 200 200" fill="none" xmlns="http://www.w3.org/2000/svg">
<path d="M100 200C155.228 200 200 155.228 200 100C200 44.7715 155.228 0 100 0C44.7715 0 0 44.7715 0 100C0 155.228 44.7715 200 100 200Z" fill="#34495E"/>
<path d="M127.241 45.5919C108.222 53.1704 95.8155 60.9414 93.9394 78.4512C93.266 83.8384 88.5522 88.5522 86.532 93.266C79.1246 111.448 77.1044 130.303 62.2896 145.118C57.3111 149.543 59.9192 158.445 57.5865 164.752L92.6323 199.729C95.0653 199.906 97.5219 200 100 200C149.461 200 190.529 164.089 198.568 116.919L127.241 45.5919Z" fill="#1D3747"/>
<path d="M144.444 88.8889L133.333 100H66.6667L55.5555 88.8889L66.6667 66.6667H133.333L144.444 88.8889Z" fill="#ECF0F1"/>
<path d="M116.667 74.7434H83.3333V78.1104H116.667V74.7434Z" fill="#345065"/>
<path d="M74.3448 56.0916L96.3865 77.4485L127.241 45.5919L105.199 24.235L74.3448 56.0916Z" fill="#82D9C8"/>
<path d="M62.2896 166.667H137.71C141.43 166.667 144.444 163.652 144.444 159.933V88.8889H55.5555V159.933C55.5555 163.652 58.5704 166.667 62.2896 166.667Z" fill="#D0D5D9"/>
<path d="M127.778 122.222H72.2222V144.444H127.778V122.222Z" fill="#5D7486"/>
</svg>
